<svg width="28" height="28" viewBox="0 0 28 28" fill="none" xmlns="http://www.w3.org/2000/svg">
<path d="M10.7692 0C4.89677 0 0 4.03846 0 9.15385C0 11.7708 1.43231 14.0517 3.46662 15.7166C3.33526 16.6013 2.97559 17.4364 2.42308 18.1397C2.1976 18.4283 1.96196 18.7088 1.71662 18.9808C1.58961 19.1146 1.47666 19.2611 1.37954 19.418C1.31815 19.5182 1.22231 19.6302 1.17815 19.8563C1.13292 20.0814 1.19431 20.4518 1.37954 20.7308L1.51415 20.9666L1.78338 21.1012C2.72569 21.5718 3.74338 21.4889 4.67815 21.2358C5.61185 20.9817 6.51 20.5466 7.37046 20.0911C8.22985 19.6366 9.04723 19.1606 9.69231 18.8128C9.78277 18.7643 9.84092 18.7525 9.92815 18.7115C11.6265 21.0463 14.7366 22.6154 18.2065 22.6154C18.2398 22.6197 18.2711 22.6154 18.3077 22.6154C19.7077 22.6154 24.2308 27.2397 26.9231 25.4089C27.0308 24.9792 24.556 23.9012 24.4322 20.6974C26.5397 19.208 27.8998 16.9928 27.8998 14.5385C27.8998 10.9071 25.018 7.90677 21.1691 6.832C19.9511 2.86892 15.7166 0 10.7692 0ZM10.7692 2.15385C15.666 2.15385 19.3846 5.43846 19.3846 9.15385C19.3846 12.8692 15.666 16.1538 10.7692 16.1538C9.89477 16.1538 9.39292 16.5114 8.68215 16.8948C7.97139 17.2771 7.15615 17.752 6.36031 18.1731C5.67108 18.5371 5.01415 18.8171 4.40892 19.0142C4.998 18.1634 5.61292 17.0445 5.72062 15.4808L5.75508 14.8745L5.25 14.5051C3.33092 13.16 2.15385 11.2248 2.15385 9.15385C2.15385 5.43846 5.87246 2.15385 10.7692 2.15385Z" fill="url(#paint0_linear_1701_35568)"/>
<defs>
<linearGradient id="paint0_linear_1701_35568" x1="13.9499" y1="0" x2="13.9499" y2="25.8377" gradientUnits="userSpaceOnUse">
<stop stop-color="#197B50"/>
<stop offset="1" stop-color="#81FFC7"/>
</linearGradient>
</defs>
</svg>
